<?xml version="1.0" encoding="UTF-8" standalone="no"?>
<!-- Created with Inkscape (http://www.inkscape.org/) -->

<svg
   width="1000"
   height="1000.0001"
   viewBox="0 0 264.58334 264.58335"
   version="1.1"
   id="svg1"
   xml:space="preserve"
   xmlns="http://www.w3.org/2000/svg"
   xmlns:svg="http://www.w3.org/2000/svg"><defs
     id="defs1" /><g
     id="layer1"><g
       id="g5"
       transform="matrix(4.427247,0,0,4.1958757,-194.89294,-422.79413)"><g
         id="g6"><g
           id="layer1-1"
           transform="matrix(0.0219785,0,0,0.02238318,68.00521,126.49588)"
           style="fill:#275ca0;fill-opacity:0.996078;stroke:#275ca0;stroke-opacity:1"><g
             id="g3"
             style="fill:#275ca0;fill-opacity:0.996078;stroke:#275ca0;stroke-opacity:1"><g
               id="g4"
               transform="matrix(4.3618184,0,0,4.2666108,-686.7277,-856.68795)"
               style="fill:#275ca0;fill-opacity:0.996078;stroke:#275ca0;stroke-opacity:1"><path
                 id="path1-7"
                 style="fill:#275ca0;fill-opacity:0.996078;stroke:#275ca0;stroke-width:0.264583;stroke-opacity:1"
                 d="m 214.90837,210.39551 c -12.96788,13.65764 -23.66266,32.31587 -16.02699,53.1286 -23.5065,-17.93455 -40.58491,10.11521 -40.58491,15.26192 20.28345,-12.42843 11.40575,13.85898 48.73629,10.32164 -3.07146,2.86112 -8.84984,9.10165 -10.53346,12.56911 h 18.40907 z m -4.3e-4,0 c 12.96788,13.65764 23.66266,32.31587 16.02699,53.1286 23.5065,-17.93455 40.58491,10.11521 40.58491,15.26192 -24.97035,-12.04202 -11.40575,13.85898 -48.73629,10.32164 3.07146,2.86112 8.84984,9.10165 10.53346,12.56911 h -18.40907 z" /></g></g><path
             style="fill:#275ca0;fill-opacity:0.996078;stroke:#275ca0;stroke-width:0.264583;stroke-opacity:1"
             d="M 291.81864,217.26352 Z"
             id="path2" /></g><ellipse
           style="fill:#000000;fill-opacity:0;stroke:#ff8000;stroke-width:1;stroke-dasharray:none;stroke-opacity:1"
           id="path1"
           cx="73.514397"
           cy="132.29167"
           rx="8.1286774"
           ry="19.250345" /><ellipse
           style="fill:#000000;fill-opacity:0;stroke:#ff8000;stroke-width:1;stroke-dasharray:none;stroke-opacity:1"
           id="path1-9"
           cx="151.24466"
           cy="5.5233288"
           rx="8.1286774"
           ry="19.250345"
           transform="rotate(58.847635)" /><ellipse
           style="fill:#000000;fill-opacity:0;stroke:#ff8000;stroke-width:1;stroke-dasharray:none;stroke-opacity:1"
           id="path1-9-7"
           cx="75.184357"
           cy="131.34979"
           rx="8.1286774"
           ry="19.250345"
           transform="matrix(-0.51731569,0.85579465,0.85579465,0.51731569,0,0)" /><ellipse
           style="fill:#275ca0;fill-opacity:0.994937;stroke:#275ca0;stroke-width:1.63902;stroke-opacity:1"
           id="path3"
           cx="78.614052"
           cy="117.24461"
           rx="1.1122257"
           ry="1.3254548" /><ellipse
           style="fill:#275ca0;fill-opacity:0.994937;stroke:#275ca0;stroke-width:1.63902;stroke-opacity:1"
           id="path3-6"
           cx="82.716568"
           cy="144.3208"
           rx="1.1122257"
           ry="1.3254548" /><ellipse
           style="fill:#275ca0;fill-opacity:0.994937;stroke:#275ca0;stroke-width:1.63902;stroke-opacity:1"
           id="path3-6-1"
           cx="58.737717"
           cy="134.31052"
           rx="1.1122257"
           ry="1.3254548" /></g></g></g></svg>
